<svg width="2240" height="730" viewBox="0 0 2240 730" fill="none" xmlns="http://www.w3.org/2000/svg">
<g clip-path="url(#clip0_28_2)">
<path d="M9 466C9 466 6 472 6 479C9 484 14 489 22 494L280 640L106 340C99 329 99 312 105 302L10 466H9Z" fill="url(#paint0_linear_28_2)"/>
<path d="M550 175C550 175 553 169 553 162C550 157 545 152 537 147L279 1L453 301C460 312 460 328 454 339L549 175H550Z" fill="url(#paint1_linear_28_2)"/>
<path d="M2102 392H2028V503H2102C2138 503 2161 481 2161 448C2161 415 2138 392 2102 392ZM2028 574V727H1949V321H2106C2190 321 2240 379 2240 448C2240 517 2190 575 2106 575H2028V574ZM1721 441L1670 589H1771L1721 441ZM1816 727L1792 655H1648L1623 727H1540L1688 321H1750L1898 727H1815H1816ZM1522 602C1508 687 1448 730 1373 730C1328 730 1292 714 1263 686C1222 645 1223 594 1223 524C1223 454 1222 403 1263 362C1292 333 1328 317 1373 317C1449 317 1508 360 1522 445H1442C1434 413 1413 387 1374 387C1297 387 1303 468 1303 523C1303 578 1297 659 1374 659C1414 659 1434 634 1442 601H1522V602ZM1078 727V490L1000 644H946L868 490V727H789V321H867L973 541L1079 321H1157V727H1078ZM280 639L538 493C549 487 560 474 560 460V179C560 172 557 167 554 161C554 168 551 174 551 174L280 639ZM280 0L22 146C11 152 0 165 0 179V460C0 465 3 473 6 478C6 473 8 468 9 465L279 0H280Z" fill="#1D2675"/>
</g>
<defs>
<linearGradient id="paint0_linear_28_2" x1="60" y1="345" x2="235" y2="610" gradientUnits="userSpaceOnUse">
<stop stop-color="#D5D7D8"/>
<stop offset="0.2" stop-color="#B4B6B8"/>
<stop offset="1" stop-color="#929498"/>
</linearGradient>
<linearGradient id="paint1_linear_28_2" x1="500" y1="295" x2="324" y2="31" gradientUnits="userSpaceOnUse">
<stop stop-color="#D5D7D8"/>
<stop offset="0.2" stop-color="#B4B6B8"/>
<stop offset="1" stop-color="#929498"/>
</linearGradient>
<clipPath id="clip0_28_2">
<rect width="2240" height="730" fill="white"/>
</clipPath>
</defs>
</svg>
