<svg id="Layer_1" xmlns="http://www.w3.org/2000/svg" version="1.1" viewBox="0 0 451.023 132.205"><defs><style>.st0{fill:#26d07c}</style></defs><path class="st0" d="M423.445 74.342l27.578-33.194h-24.152l-15.825 19.024 12.399 14.17z"/><path fill="#ff0098" d="M414.249 85.788l-37.16 44.762h-24.175l36.93-44.742L352.87 41.15h24.109l37.27 44.638z"/><path class="st0" d="M423.184 97.414l27.578 33.195H426.61l-15.825-19.025 12.399-14.17z"/><path d="M141.21 114.767V31.356h-29.164l-37.86 81.349V31.356h-28.14L0 130.612h17.907l38.884-82.884.511 82.899H84.42l38.372-83.41v83.41h31.329l-12.91-15.86zm59.718 17.438c-26.817 0-46.281-19.618-46.281-46.646 0-26.593 19.582-46.646 45.55-46.646 13.068 0 24.622 4.81 32.536 13.542 8.546 9.432 12.451 22.753 10.995 37.509l-.184 1.868h-70.388c2.439 14.543 13.126 23.807 27.772 23.807 10.168 0 17.558-3.493 20.81-9.835l.577-1.127h19.75l-1.008 2.778c-5.533 15.266-20.91 24.75-40.129 24.75zm24.63-54.381c-1.435-14.27-10.783-22.712-25.36-22.712-13.71 0-24.007 8.832-26.786 22.712h52.147zm31.604 52.794v-89.49h18.028v10.468c8.114-8.102 18.803-12.502 30.629-12.502h2.072v17.243l-2.018.053c-12.975.342-23.572 6.215-30.683 16.995v57.233h-18.028zm63.93.002l.025-89.482h18.027l-.025 89.482h-18.027zm8.831-108.024c-6.386 0-11.39-4.923-11.39-11.207C318.534 4.897 323.43 0 329.924 0c6.489 0 11.571 5.003 11.571 11.39 0 6.283-5.082 11.206-11.571 11.206z"/></svg>