<svg xml:space="preserve" height="357.72842" width="400" version="1.1" id="svg2" xmlns="http://www.w3.org/2000/svg"><metadata id="metadata8">image/svg+xml</metadata><defs id="defs6"><clipPath id="clipPath16" clipPathUnits="userSpaceOnUse"><path id="path18" d="m 0,0 1239.75,0 0,783 L 0,783 0,0 z"></path></clipPath><clipPath id="clipPath42" clipPathUnits="userSpaceOnUse"><path id="path44" d="m 0,0 1239.75,0 0,783 L 0,783 0,0 z"></path></clipPath><clipPath id="clipPath58" clipPathUnits="userSpaceOnUse"><path id="path60" d="m 1143.369,36 60.381,0 0,54 -60.381,0 0,-54 z"></path></clipPath><clipPath id="clipPath74" clipPathUnits="userSpaceOnUse"><path id="path76" d="m 0,0 1239.75,0 0,783 L 0,783 0,0 z"></path></clipPath><clipPath id="clipPath126" clipPathUnits="userSpaceOnUse"><path id="path128" d="m 275.809,345 60.381,0 0,54 -60.381,0 0,-54 z"></path></clipPath><clipPath id="clipPath138" clipPathUnits="userSpaceOnUse"><path id="path140" d="m 432.04,27.76 72,0 0,50.701 -72,0 0,-50.701 z"></path></clipPath><clipPath id="clipPath190" clipPathUnits="userSpaceOnUse"><path id="path192" d="m 444.962,36.813 51.576,0 0,33.051 -51.576,0 0,-33.051 z"></path></clipPath><clipPath id="clipPath206" clipPathUnits="userSpaceOnUse"><path id="path208" d="m 432.04,27.76 72,0 0,50.701 -72,0 0,-50.701 z"></path></clipPath><clipPath id="clipPath222" clipPathUnits="userSpaceOnUse"><path id="path224" d="m 391.925,36.482 42.549,0 0,32.098 -42.549,0 0,-32.098 z"></path></clipPath><clipPath id="clipPath234" clipPathUnits="userSpaceOnUse"><path id="path236" d="m 385.48,29.8 54.064,0 0,46.62 -54.064,0 0,-46.62 z"></path></clipPath><clipPath id="clipPath246" clipPathUnits="userSpaceOnUse"><path id="path248" d="m 391.925,36.482 42.549,0 0,32.098 -42.549,0 0,-32.098 z"></path></clipPath><clipPath id="clipPath262" clipPathUnits="userSpaceOnUse"><path id="path264" d="m 385.48,29.8 54.064,0 0,46.62 -54.064,0 0,-46.62 z"></path></clipPath></defs><g transform="matrix(1.25,0,0,-1.25,-1429.2113,402.72843)" id="g10"><g transform="matrix(5.2996804,0,0,5.2996804,-4916.1212,-154.78849)" id="g3261"><path d="m 1143.369,36 60.381,0 0,54 -60.381,0 0,-54 z" style="fill:#54b948;fill-opacity:1;fill-rule:nonzero;stroke:none" id="path52"></path><g id="g54"><g id="g56" clip-path="url(#clipPath58)"><g id="g62" transform="translate(1183.0096,47.6816)"><path d="m 0,0 -14.064,0 0,25.336 7.064,0 0,-20.848 6.794,0 c 4.69,0 6.66,3.249 6.66,11.616 0,8.417 -2.238,10.863 -6.999,10.863 l -15.495,0 0,-26.967 -6.995,0 0,26.967 -10.265,0 0,4.498 34.934,0 c 8.426,0 12.429,-4.36 12.429,-15.294 C 14.063,1.766 8.086,0 0,0" style="fill:#ffffff;fill-opacity:1;fill-rule:nonzero;stroke:none" id="path64"></path></g></g></g></g></g></svg>