<svg xmlns="http://www.w3.org/2000/svg" fill="none" viewBox="0 0 924 192" height="192" width="924">
<g clip-path="url(#clip0_28_6)">
<path fill="#F58426" d="M75.2143 30.66H121.337V3.68726H0.461426V30.66H46.591V149.765H75.2143V30.66Z"></path>
<path fill="#F58426" d="M136.269 128.161C150.005 128.161 160.717 117.643 160.717 99.6867C160.717 81.8988 150.005 72.0067 136.269 72.0067C122.527 72.0067 111.626 82.095 111.626 99.8818C111.626 117.645 122.131 128.161 136.269 128.161ZM186.767 149.772H160.914V138.263C156.466 146.145 146.371 152.203 133.034 152.203C104.756 152.203 84.5439 129.991 84.5439 99.8818C84.5439 70.7907 104.144 47.978 132.227 47.978C149.396 47.978 157.485 55.0309 160.309 60.2793V50.3872H186.767V149.772ZM225.254 149.765H198.384V50.3803H224.446V62.7066C230.498 52.4096 242.429 47.7522 253.129 47.7522C277.78 47.7522 289.079 65.3371 289.079 87.1437V149.766H262.224V91.7908C262.224 80.6759 256.767 72.001 243.836 72.001C232.124 72.001 225.254 81.0969 225.254 92.6133V149.765ZM372.7 97.0483C372.7 81.6969 362.195 72.001 349.257 72.001C335.937 72.001 325.424 81.6957 325.424 97.0483C325.424 112.612 335.327 122.303 349.257 122.303C362.999 122.303 372.7 112.411 372.7 97.0483ZM322.599 148.766C324.407 159.656 333.096 167.544 345.827 167.544C362.802 167.544 372.302 159.069 372.302 139.885V132.592C368.259 139.068 358.954 145.326 344.615 145.326C318.147 145.326 298.361 124.936 298.361 97.0471C298.361 70.7873 317.352 48.5735 344.615 48.5735C360.371 48.5735 369.462 55.4336 372.902 62.093V50.3815H398.763V139.068C398.763 166.328 384.01 191.184 346.649 191.184C319.375 191.184 301.185 174.218 298.36 155.219L322.599 148.766ZM479.571 88.7634C479.163 78.8725 472.688 69.1744 457.346 69.1744C443.41 69.1744 435.726 79.6904 435.124 88.7634H479.571ZM504.602 121.286C499.559 138.455 483.804 152.816 459.36 152.816C432.091 152.816 408.049 133.213 408.049 99.6821C408.049 67.9572 431.485 47.3632 456.931 47.3632C487.643 47.3632 506.028 66.9466 506.028 98.8677C506.028 102.699 505.633 106.734 505.633 107.15H434.516C435.124 120.28 446.234 129.763 459.572 129.763C472.08 129.763 478.968 123.511 482.189 114.612L504.602 121.286ZM585.199 50.3815H612.059V149.766H585.199V50.3815ZM650.538 149.765H623.662V50.3803H649.732V62.7066C655.79 52.4096 667.704 47.7522 678.414 47.7522C703.058 47.7522 714.378 65.3371 714.378 87.1437V149.766H687.519V91.7908C687.519 80.6759 682.056 72.001 669.123 72.001C657.409 72.001 650.537 81.0969 650.537 92.6133L650.538 149.765ZM795.177 88.7634C794.759 78.8725 788.311 69.1744 772.947 69.1744C759.014 69.1744 751.346 79.6904 750.727 88.7634H795.177ZM820.217 121.286C815.176 138.455 799.42 152.816 774.966 152.816C747.693 152.816 723.663 133.213 723.663 99.6821C723.663 67.9572 747.098 47.3632 772.551 47.3632C803.254 47.3632 821.627 66.9466 821.627 98.8677C821.627 102.699 821.229 106.734 821.229 107.15H750.117C750.725 120.28 761.833 129.763 775.17 129.763C787.685 129.763 794.575 123.511 797.789 114.612L820.217 121.286ZM614.982 17.1794C614.982 26.2045 607.664 33.5335 598.634 33.5335C589.594 33.5335 582.278 26.2045 582.278 17.1794C582.279 8.14282 589.594 0.816162 598.635 0.816162C607.664 0.816162 614.982 8.14396 614.982 17.1794ZM575.902 76.3516C573.244 75.8139 570.538 75.5434 567.826 75.544C554.09 75.544 542.177 82.2102 542.177 103.622V149.761H515.309V50.386H541.365V65.8344C547.427 52.7051 561.157 48.8883 569.646 48.8883C571.861 48.8883 573.886 49.0879 575.9 49.2898V76.3516H575.902ZM922.672 7.49947C923.916 9.77515 923.834 12.7524 922.336 15.0782L871.77 93.8578C871.141 94.8364 870.19 95.5648 869.082 95.9173C867.973 96.2699 866.776 96.2245 865.697 95.789C863.473 94.881 862.097 92.5015 862.679 90.1711C865.572 78.5999 868.833 58.6606 859.668 41.9244C850.532 25.1688 831.99 17.1395 820.694 13.325C818.42 12.5596 817.155 10.1139 817.595 7.7527C817.811 6.60904 818.419 5.57664 819.315 4.83407C820.211 4.09149 821.339 3.68544 822.503 3.68614L916.112 3.68842C918.876 3.685 921.426 5.22379 922.672 7.49947Z"></path>
</g>
<defs>
<clipPath id="clip0_28_6">
<rect fill="white" height="192" width="924"></rect>
</clipPath>
</defs>
</svg>
