<svg width="1806" height="485" viewBox="0 0 1806 485" fill="none" xmlns="http://www.w3.org/2000/svg">
<path d="M210.35 119.96C211.16 122.41 210.91 124.78 209.61 127.06L118.07 216.15C116.11 218.12 115.94 220.24 117.57 222.52C125.41 232.31 133.56 242.59 142.05 253.36C150.53 264.13 158.69 274.65 166.52 284.93C174.35 295.21 181.69 304.85 188.55 313.81C195.41 322.79 201.28 330.54 206.18 337.06C207.48 339.35 207.72 341.64 206.92 343.92C206.1 346.21 204.23 347.35 201.29 347.35H149.89C146.63 347.35 144.34 346.37 143.03 344.41L56.87 227.91V340.5C56.87 342.14 56.13 343.68 54.67 345.15C53.2 346.62 51.65 347.36 50.02 347.36H7.42001C5.46001 347.36 3.75001 346.62 2.28001 345.15C0.810006 343.68 0.0700073 342.14 0.0700073 340.5V8.11001C0.0700073 6.15001 0.810006 4.43001 2.28001 2.97001C3.75001 1.50001 5.46001 0.76001 7.42001 0.76001H50.02C51.65 0.76001 53.2 1.50001 54.67 2.97001C56.13 4.43001 56.87 6.15001 56.87 8.11001V210.78L148.41 121.68C150.05 120.38 151.67 119.15 153.31 118C154.94 116.86 156.89 116.29 159.18 116.29H205.19C207.82 116.29 209.53 117.51 210.35 119.96Z" fill="#E02826"/>
<path d="M350.11 115.31C365.78 115.31 380.7 118.18 394.9 123.88C409.1 129.59 421.41 137.91 431.86 148.84C442.3 159.78 450.38 173.41 456.09 189.72C461.79 206.04 464.32 224.96 463.67 246.51C463.67 249.77 463.18 252.06 462.2 253.37C461.23 254.67 459.09 255.33 455.84 255.33C427.76 255.66 402.31 255.82 379.47 255.82H291.84C291.52 255.82 291.19 255.99 290.87 256.31V256.81C291.19 258.45 292.41 261.54 294.54 266.11C296.67 270.68 300.01 275.49 304.58 280.55C309.15 285.61 315.19 290.34 322.69 294.75C330.2 299.15 339.65 302.01 351.09 303.32C360.88 304.62 369.69 304.62 377.52 303.32C385.35 302.02 392.29 300.14 398.33 297.69C404.37 295.25 409.59 292.3 414 288.89C418.4 285.46 422.07 282.12 425.01 278.85C426.31 277.55 427.78 277.38 429.41 278.35L455.85 300.88C457.15 302.19 457.81 303.32 457.81 304.31C457.81 305.62 457.48 306.59 456.83 307.24C454.22 310.18 450.22 314.26 444.84 319.48C439.45 324.7 432.43 329.75 423.79 334.65C415.14 339.55 404.78 343.7 392.7 347.13C380.62 350.56 366.76 352.1 351.1 351.78C335.43 351.46 320.51 348.11 306.31 341.74C292.11 335.38 279.79 326.9 269.35 316.29C258.9 305.68 250.58 293.28 244.39 279.08C238.19 264.89 235.08 249.63 235.08 233.31C235.08 216.99 238.09 201.66 244.14 187.3C250.18 172.94 258.41 160.46 268.86 149.85C279.3 139.24 291.54 130.84 305.57 124.64C319.59 118.41 334.45 115.31 350.11 115.31ZM411.31 207.83C411.63 207.51 411.8 207.02 411.8 206.36C410.16 202.45 407.96 197.96 405.19 192.9C402.41 187.85 398.66 183.11 393.93 178.71C389.19 174.3 383.32 170.55 376.3 167.44C369.28 164.34 360.88 162.79 351.09 162.79C340.97 162.79 332.4 164.67 325.39 168.42C318.37 172.18 312.66 176.5 308.26 181.39C303.85 186.29 300.59 191.19 298.47 196.08C296.34 200.98 294.96 204.41 294.31 206.36V207.83C294.63 208.16 294.96 208.32 295.28 208.32H409.84C410.81 208.32 411.31 208.17 411.31 207.83Z" fill="#E02826"/>
<path d="M711.37 376.72C711.05 390.42 708.19 403.72 702.8 416.61C697.41 429.5 689.66 440.92 679.55 450.88C669.43 460.83 656.95 468.91 642.1 475.11C627.25 481.3 610.2 484.41 590.95 484.41C566.47 484.41 545.99 478.78 529.51 467.52C513.02 456.26 500.06 441.98 490.59 424.68C488.95 422.39 489.29 420.93 491.57 420.28L496.46 418.32C499.07 417.66 502.98 416.44 508.21 414.64C513.42 412.85 520.76 410.31 530.24 407.06C531.87 406.4 533.17 406.08 534.15 406.08C535.12 406.08 536.11 406.89 537.08 408.52C542.3 415.04 549.24 420.93 557.89 426.15C566.54 431.37 578.21 433.98 592.9 433.98C604.31 433.98 613.95 432.02 621.78 428.11C629.61 424.2 635.97 419.13 640.87 412.94C645.77 406.74 649.27 399.72 651.39 391.89C653.51 384.06 654.57 376.23 654.57 368.39V325.32C653.92 323.36 652.61 322.38 650.66 322.38C648.7 322.38 646.91 323.36 645.27 325.32C639.4 332.83 631.64 338.38 622.02 341.96C612.39 345.55 603.34 347.35 594.85 347.35C581.79 347.35 570.05 344.99 559.61 340.26C549.16 335.53 540.27 328.84 532.93 320.19C525.59 311.54 519.95 301.09 516.04 288.86C512.13 276.62 510.17 263.16 510.17 248.47V129.02C510.17 125.44 511.39 122.33 513.84 119.72C516.29 117.11 519.14 115.81 522.41 115.81H555.71C558.64 115.81 561.33 117.12 563.78 119.72C566.23 122.33 567.46 125.44 567.46 129.02V250.91C567.46 254.83 568.11 259.16 569.42 263.89C570.72 268.62 572.92 273.12 576.03 277.35C579.13 281.6 583.29 285.18 588.51 288.12C593.73 291.05 600.42 292.52 608.58 292.52C621.31 292.52 631.84 287.95 640.16 278.82C648.49 269.69 652.64 257.77 652.64 243.08V129.02C652.64 125.44 653.7 122.33 655.83 119.72C657.94 117.11 660.8 115.81 664.4 115.81H699.16C702.74 115.81 705.68 117.12 707.97 119.72C710.25 122.33 711.39 125.44 711.39 129.02V376.72H711.37Z" fill="#E02826"/>
<path d="M794.6 21.82C818.59 17.91 854.32 14.97 893.96 14.97C942.92 14.97 977.19 22.31 1000.68 40.91C1020.26 56.57 1031.03 79.58 1031.03 109.93C1031.03 152.03 1001.17 180.91 972.77 191.19V192.66C995.78 201.96 1008.51 223.99 1016.83 254.34C1027.11 291.54 1037.39 334.62 1043.76 347.34H967.39C962 338.04 954.17 311.11 944.39 270.48C935.58 229.36 921.38 218.11 891.03 217.62H868.51V347.34H794.6V21.82ZM868.51 163.78H897.88C935.08 163.78 957.11 145.18 957.11 116.3C957.11 85.94 936.55 70.77 902.28 70.28C884.17 70.28 873.89 71.74 868.51 72.72V163.78Z" fill="#E02826"/>
<path d="M1222.91 347.35L1218.51 323.36H1217.04C1201.37 342.45 1176.9 352.73 1148.51 352.73C1100.04 352.73 1071.17 317.49 1071.17 279.3C1071.17 217.13 1126.97 187.27 1211.66 187.76V184.34C1211.66 171.61 1204.8 153.5 1168.09 153.5C1143.62 153.5 1117.67 161.82 1102 171.61L1088.3 123.64C1104.94 114.34 1137.74 102.59 1181.3 102.59C1261.1 102.59 1286.55 149.59 1286.55 205.88V289.1C1286.55 312.11 1287.52 334.14 1289.97 347.36H1222.91V347.35ZM1214.1 234.27C1174.94 233.77 1144.59 243.07 1144.59 271.96C1144.59 291.05 1157.31 300.36 1173.95 300.36C1192.56 300.36 1207.73 288.12 1212.62 272.95C1213.6 269.03 1214.09 264.62 1214.09 260.22V234.27H1214.1Z" fill="#E02826"/>
<path d="M1424.6 39.44V107.97H1477.96V162.8H1424.6V249.44C1424.6 278.32 1431.46 291.54 1453.97 291.54C1463.27 291.54 1470.61 290.56 1476 289.58L1476.5 345.87C1466.7 349.78 1449.09 352.24 1428.03 352.24C1404.04 352.24 1383.97 343.91 1372.23 331.67C1358.52 317.48 1351.67 294.47 1351.67 260.69V162.79H1319.85V107.96H1351.67V56.09L1424.6 39.44Z" fill="#E02826"/>
<path d="M1575.87 251.41C1578.32 282.25 1608.67 296.94 1643.43 296.94C1668.89 296.94 1689.45 293.51 1709.52 287.14L1719.31 337.57C1694.84 347.36 1664.98 352.26 1632.67 352.26C1551.41 352.26 1504.91 305.26 1504.91 230.37C1504.91 169.67 1542.6 102.6 1625.82 102.6C1703.16 102.6 1732.54 162.81 1732.54 222.04C1732.54 234.77 1731.07 246.03 1730.1 251.41H1575.87ZM1663.5 200.49C1663.5 182.38 1655.67 152.03 1621.4 152.03C1590.07 152.03 1577.34 180.42 1575.38 200.49H1663.5Z" fill="#E02826"/>
<path d="M1774.13 52.85V52.68C1777.99 51.37 1781.04 48.17 1781.04 43.32C1781.04 40.49 1780 37.98 1778.15 36.35C1775.86 34.28 1772.6 33.35 1767.54 33.35C1764.28 33.35 1760.85 33.63 1758.45 34.11V70.3H1763.18V54.43H1767.65C1771.95 54.6 1773.91 56.5 1774.99 61.56C1776.03 66.13 1776.85 69.28 1777.44 70.32H1782.34C1781.58 68.9 1780.7 65.37 1779.51 60.25C1778.64 56.44 1776.96 53.83 1774.13 52.85ZM1768.03 50.84H1763.19V37.45C1763.95 37.24 1765.59 37.02 1767.88 37.02C1772.88 37.08 1776.31 39.14 1776.31 43.88C1776.3 48.06 1773.09 50.84 1768.03 50.84Z" fill="#E02826"/>
<path d="M1769.57 14.95C1749.53 14.95 1733.22 31.25 1733.22 51.3C1733.22 71.33 1749.52 87.64 1769.57 87.64C1789.6 87.64 1805.91 71.34 1805.91 51.3C1805.91 31.25 1789.6 14.95 1769.57 14.95ZM1769.57 82.93C1752.13 82.93 1737.93 68.74 1737.93 51.3C1737.93 33.85 1752.13 19.66 1769.57 19.66C1787.01 19.66 1801.2 33.85 1801.2 51.3C1801.2 68.74 1787.01 82.93 1769.57 82.93Z" fill="#E02826"/>
</svg>
