<svg width="9" height="11" viewBox="0 0 9 11" fill="none" xmlns="http://www.w3.org/2000/svg">
<path d="M0 7.68L4.16 10.15L8.32 7.68L4.16 10.89L0 7.68Z" fill="#E02826"/>
<path d="M1.5 7.59L4.16 9.18L6.82 7.59L4.16 9.65L1.5 7.59Z" fill="#E02826"/>
<path d="M2.76 7.59L4.16 8.43L5.56 7.59L4.16 8.67L2.76 7.59Z" fill="#E02826"/>
<path d="M4.29 2.42C4.31 2.47 4.3 2.52 4.28 2.56L2.41 4.38C2.37 4.42 2.36 4.46 2.4 4.51C2.56 4.71 2.73 4.92 2.9 5.14C3.07 5.36 3.24 5.57 3.4 5.78C3.56 5.99 3.71 6.19 3.85 6.37C3.98 6.55 4.1 6.71 4.2 6.84C4.23 6.89 4.23 6.94 4.22 6.98C4.2 7.03 4.16 7.05 4.1 7.05H3.05C2.98 7.05 2.94 7.03 2.91 6.99L1.16 4.62V6.91C1.16 6.94 1.15 6.97 1.12 7C1.09 7.04 1.05 7.05 1.02 7.05H0.15C0.11 7.05 0.0800002 7.04 0.0500002 7.01C0.0200002 6.98 0 6.95 0 6.91V0.14C0 0.1 0.0100002 0.07 0.0400002 0.04C0.0700002 0.00999996 0.1 0 0.14 0H1.01C1.04 0 1.07 0.00999996 1.1 0.04C1.15 0.07 1.16 0.1 1.16 0.14V4.27L3.02 2.46C3.05 2.43 3.09 2.41 3.12 2.39C3.16 2.36 3.2 2.35 3.24 2.35H4.18C4.23 2.35 4.27 2.37 4.29 2.42Z" fill="#E02826"/>
<path d="M4.72 2.35C5.07 2.29 5.58 2.25 6.15 2.25C6.86 2.25 7.35 2.36 7.69 2.62C7.97 2.85 8.13 3.18 8.13 3.62C8.13 4.23 7.7 4.64 7.29 4.79V4.81C7.62 4.94 7.81 5.26 7.93 5.7C8.08 6.24 8.23 6.86 8.32 7.04H7.22C7.14 6.91 7.03 6.52 6.89 5.93C6.76 5.34 6.56 5.17 6.12 5.17H5.79V7.04H4.72V2.35ZM5.79 4.4H6.21C6.75 4.4 7.06 4.13 7.06 3.71C7.06 3.27 6.76 3.05 6.27 3.05C6.01 3.05 5.86 3.07 5.78 3.09V4.4H5.79Z" fill="#E02826"/>
</svg>
